<?xml version="1.0" encoding="utf-8"?>
<svg version="1.2" baseProfile="tiny" id="Ebene_1" xmlns="http://www.w3.org/2000/svg" xmlns:xlink="http://www.w3.org/1999/xlink"
	 x="0px" y="0px" viewBox="0 0 118 105" overflow="visible" xml:space="preserve">
<g transform="translate(0.000000,105.000000) scale(0.100000,-0.100000)">
	<path d="M384,985c-35-35-57-48-96-56c-66-15-93-42-109-113c-8-36-19-61-31-67c-10-6-31-28-47-49c-25-35-28-44-20-82
		c4-24,12-54,17-69c6-15,6-31,1-42c-5-9-13-36-18-61c-9-52,5-84,56-127c19-16,33-39,37-64c16-82,49-115,130-130c27-5,50-20,78-51
		c22-24,48-46,59-49c11-4,44,1,75,10c51,15,61,15,125-1l69-17l35,27c19,15,42,38,51,50c10,16,29,26,55,30c83,13,129,60,129,130
		c0,15,18,42,50,75c43,44,50,57,50,91c0,23-6,56-14,74c-12,29-12,40-1,73c8,21,14,55,15,76c0,31-7,45-45,83c-35,35-48,57-56,96
		c-14,65-42,93-107,107c-39,8-62,21-97,56c-52,50-85,56-157,31c-32-11-44-11-75,0c-21,7-55,13-76,14C436,1030,422,1023,384,985z
		 M537,986c4-4-9-22-27-41c-34-33-36-34-77-22c-50,13-54,27-15,56c20,17,37,21,70,17C512,994,534,989,537,986z M740,978
		c17-12,30-27,30-33s-20-16-45-23c-45-12-46-12-75,21c-34,38-36,44-12,50C678,1004,713,999,740,978z M623,932c15-15,27-31,27-35
		s-16-22-36-40l-36-33l-34,34c-19,19-34,37-34,40c0,13,55,62,70,62C589,960,608,947,623,932z M416,899c50-13,48-10,33-58
		c-7-20-13-41-15-47c-2-8-16-8-51,1c-52,14-57,27-34,88C361,914,358,913,416,899z M809,883c25-62,20-74-34-89c-27-7-51-13-51-14
		c-1,0-4,15-7,33c-4,17-9,42-13,54c-5,19-1,23,38,31c23,5,46,10,49,11C795,910,803,898,809,883z M320,894c0-3-5-25-11-49
		c-10-38-15-44-42-47c-18-3-40-9-51-13c-16-7-17-5-11,16c16,58,29,79,54,88C289,900,320,903,320,894z M898,889c30-10,52-48,52-89
		c0-15-5-16-47-5c-44,11-49,15-54,46c-3,19-9,40-13,47C827,903,856,904,898,889z M524,839c14-11,26-24,26-28s-18-12-40-18
		c-43-11-47-6-34,45C484,865,490,866,524,839z M684,838c13-51,9-56-34-45c-22,6-40,14-40,18c0,9,50,49,60,49
		C674,860,680,850,684,838z M313,723l14-51l-31-6c-17-3-41-8-53-12c-18-5-23,0-32,33c-15,54-14,59,17,71c27,11,65,20,70,17
		C299,774,306,750,313,723z M407,757c2-2-10-19-26-36l-30-32l-10,37c-6,20-8,41-5,45C340,778,397,766,407,757z M825,757
		c-2-7-6-25-10-41l-6-29l-30,29c-16,15-29,31-29,36c0,9,61,27,72,21C826,771,827,764,825,757z M933,758c30-12,31-17,16-70
		c-11-42-12-43-60-27c-19,6-40,12-46,15c-9,2-10,10-4,26c5,13,12,36,16,51C861,783,867,783,933,758z M544,743c-9-39-11-39-39-13
		c-27,26-20,40,23,40C547,770,550,766,544,743z M663,761c16-6,16-9-7-31c-29-26-32-26-41,13c-6,22-4,27,11,26
		C637,769,653,765,663,761z M595,710c7-41,0-80-15-80c-5,0-12,9-15,20c-8,25,3,100,15,100C585,750,591,732,595,710z M186,675
		c13-40,13-40-25-79l-39-39l-9,44c-10,45-4,68,25,102C159,727,170,721,186,675z M443,693c3-16,5-29,4-29c-1-1-17,1-35,3l-33,5l22,24
		C430,727,436,726,443,693z M530,633v-28l-25,25c-13,14-27,41-31,60l-6,35l31-33C518,672,530,649,530,633z M686,687
		c-6-26-43-77-55-77c-16,0,2,56,27,82C687,723,695,722,686,687z M759,696l22-23l-32-7c-18-3-33-5-35-4c-5,6,9,58,15,58
		C733,720,747,709,759,696z M1025,694c25-27,32-78,17-116c-6-14-13-11-46,19c-34,32-37,38-27,60c6,13,11,33,11,43
		C980,727,996,725,1025,694z M314,603c-4-21-8-40-10-42c-3-3-18,8-34,24l-30,29l22,13c13,7,31,12,41,13C318,640,320,634,314,603z
		 M439,629c17-6,36-20,42-30c15-30-30-25-64,6C377,643,382,649,439,629z M746,611c-33-34-91-49-75-19c11,21,56,47,83,48
		C772,640,771,637,746,611z M896,626c19-14,19-15-5-40c-14-14-27-26-31-26c-3,0-11,18-17,40c-10,38-9,40,11,40
		C866,640,885,634,896,626z M397,574c-2-2-18-7-35-10l-31-6l9,33c6,19,10,36,10,38s11-8,26-24C390,590,399,576,397,574z M820,591
		l9-32l-32,6c-43,10-44,11-17,40S808,633,820,591z M250,565l34-35l-30-32c-16-18-31-36-34-40c-3-5-23,9-44,31l-38,38l32,37
		c18,20,35,36,39,36S231,584,250,565z M982,573c36-35,35-52-4-90l-33-31l-36,39l-35,38l35,36c20,19,38,35,40,35
		C952,600,967,588,982,573z M458,544c54-15-2-41-63-30c-19,4-35,11-35,16C360,544,422,553,458,544z M769,544c41-9,39-22-4-30
		c-57-10-119,16-67,29C725,550,735,550,769,544z M314,459c4-23,5-43,4-44c-9-6-68,17-68,27c0,13,39,58,50,58
		C304,500,310,481,314,459z M376,490l27-11l-23-24c-27-29-28-28-40,14C331,503,335,505,376,490z M819,468c-5-18-9-35-9-37
		c0-3-11,6-25,19c-31,29-31,37-2,43C829,502,829,502,819,468z M894,467c23-32,20-36-29-44c-35-6-37-5-26,15c6,11,11,30,11,42
		C850,507,868,502,894,467z M167,457l32-32l-16-48l-16-48l-24,23c-39,36-45,54-33,98c6,22,14,40,18,40S149,475,167,457z M1044,468
		c12-45,6-77-20-108c-15-17-29-28-33-25c-3,4-11,25-18,48c-12,41-11,43,19,74C1030,496,1036,497,1044,468z M482,457
		c-23-24-92-52-92-37c0,17,63,60,88,60h25L482,457z M739,454c17-14,31-29,31-34c0-15-69,13-92,37l-21,23h25C697,480,722,468,739,454
		z M530,417c0-13-13-36-30-52c-26-25-30-26-30-9c0,23,36,84,50,84C525,440,530,430,530,417z M675,399c8-15,15-36,15-45
		c0-14-6-12-30,11c-32,31-42,79-15,68C654,430,667,415,675,399z M594,404c8-30-2-94-15-94c-4,0-11,16-15,35C552,408,580,462,594,404
		z M288,393c36-6,36-7,21-69c-11-44-13-45-43-38c-68,14-73,23-55,87c8,30,14,37,27,32C247,401,270,396,288,393z M938,393
		c6-10,13-32,16-50c8-36-9-51-64-55c-31-3-33-1-45,45c-9,35-9,49-1,51c6,2,25,8,41,14C927,412,928,412,938,393z M444,373
		c-11-44-15-46-40-22c-31,29-30,37,4,42c15,2,30,5,35,6C447,399,447,388,444,373z M756,390c22,0,17-27-8-45c-22-15-23-14-30,7
		c-11,40-9,51,8,44C735,393,748,390,756,390z M403,299c-5-4-23-10-42-14l-33-7l7,33c11,51,15,53,46,23C397,319,407,303,403,299z
		 M819,323c6-20,9-39,7-41s-22,2-44,8l-40,10l26,29c15,16,30,29,34,30C806,359,814,343,819,323z M544,318c3-17,5-33,3-35s-18,2-36,8
		l-32,11l22,24C530,357,536,356,544,318z M655,326l26-24l-32-11c-18-6-34-10-36-8c-4,4,8,67,13,67C628,350,641,339,655,326z
		 M443,243c3-16,8-38,12-50c6-19,2-23-35-33c-23-6-48-9-56-6c-11,4-40,84-32,91c8,6,94,31,99,28C435,272,440,258,443,243z M255,259
		c40-10,44-14,55-56c6-25,9-47,7-49c-9-9-81,22-92,41c-15,23-28,75-20,75C209,270,231,265,255,259z M543,253c11-7-33-53-50-53
		c-7,0-13,1-13,3c0,1-4,17-10,36l-9,33l37-7C518,261,539,256,543,253z M690,256c0-8-5-27-10-42l-11-27l-29,28c-43,41-41,44,38,54
		C684,269,690,264,690,256z M785,259c42-11,44-13,38-38c-18-75-29-82-92-60c-27,10-31,15-26,33c4,11,9,33,12,49
		C723,274,725,274,785,259z M950,243c-16-54-22-62-61-77c-22-9-42-16-44-16c-8,0-6,22,5,62c9,30,16,38,48,46
		C957,274,960,273,950,243z M620,195l34-35l-37-38l-37-37l-37,37l-37,38l34,35c19,19,37,35,40,35S601,214,620,195z M540,74
		c0-2-18-8-40-14c-44-12-62-6-98,33l-24,25l49,14l48,15l33-35C525,93,540,76,540,74z M744,82c-31-27-44-32-69-27c-71,15-70,14-30,55
		l37,38l50-16l50-17L744,82z"/>
	<path display="none" d="M1260,850"/>
</g>
</svg>
