<?xml version="1.0" standalone="no"?>
<!DOCTYPE svg PUBLIC "-//W3C//DTD SVG 20010904//EN"
 "http://www.w3.org/TR/2001/REC-SVG-20010904/DTD/svg10.dtd">
<svg version="1.0" xmlns="http://www.w3.org/2000/svg"
 width="944.000000pt" height="944.000000pt" viewBox="0 0 944.000000 944.000000"
 preserveAspectRatio="xMidYMid meet">
<metadata>
Created by potrace 1.14, written by Peter Selinger 2001-2017
</metadata>
<g transform="translate(0.000000,944.000000) scale(0.100000,-0.100000)"
fill="#000000" stroke="none">
<path d="M3580 8749 c-129 -22 -245 -98 -459 -303 -253 -243 -336 -308 -486
-383 -96 -48 -164 -71 -350 -117 -296 -74 -433 -143 -572 -290 -132 -138 -194
-271 -278 -597 -96 -369 -143 -470 -259 -553 -121 -86 -320 -310 -441 -494
-86 -132 -115 -210 -115 -318 0 -134 70 -474 153 -739 35 -114 40 -142 41
-230 0 -91 -2 -106 -31 -170 -17 -38 -45 -115 -61 -171 -110 -368 -120 -622
-35 -819 64 -146 200 -313 388 -475 193 -166 272 -309 335 -610 60 -284 163
-495 314 -645 151 -150 343 -238 676 -309 267 -57 367 -121 670 -427 200 -201
314 -301 406 -355 104 -61 293 -41 724 76 212 58 325 75 440 67 123 -9 209
-27 645 -134 332 -81 392 -93 410 -83 11 7 87 65 169 128 187 145 355 298 443
404 192 231 241 259 538 317 303 60 499 145 679 295 106 90 217 258 266 406
24 74 50 231 50 306 0 150 116 325 445 674 236 249 309 358 340 506 35 167 1
484 -76 703 -95 270 -91 256 -86 376 4 97 11 128 56 270 96 300 139 582 112
745 -25 149 -93 257 -301 474 -249 261 -312 340 -387 491 -49 97 -73 170 -112
335 -41 171 -64 238 -121 355 -83 170 -193 283 -360 369 -106 55 -170 77 -385
131 -344 86 -445 145 -772 449 -221 206 -360 294 -533 337 -73 19 -103 21
-220 16 -153 -6 -219 -20 -477 -102 -283 -89 -343 -93 -546 -30 -345 107 -657
153 -837 124z m1995 -254 c164 -29 314 -110 465 -252 42 -40 87 -92 100 -116
22 -42 23 -46 8 -69 -34 -52 -232 -135 -453 -189 -136 -33 -220 -37 -272 -12
-50 24 -131 101 -258 247 -239 276 -243 315 -36 365 173 43 305 50 446 26z
m-1684 -5 c136 -14 280 -38 349 -59 46 -14 55 -21 58 -42 5 -46 -90 -172 -252
-334 -229 -228 -261 -238 -529 -165 -243 66 -341 112 -372 176 -14 29 -14 41
-4 72 16 47 91 127 204 215 174 136 283 163 546 137z m828 -315 c86 -41 182
-117 303 -244 132 -138 186 -220 171 -254 -22 -47 -159 -190 -353 -367 -111
-102 -207 -186 -214 -188 -16 -4 -400 387 -483 491 -35 43 -63 86 -63 95 0 74
301 365 474 458 74 40 95 41 165 9z m-1509 -436 c356 -84 418 -106 446 -161
21 -41 10 -97 -66 -333 -32 -99 -72 -225 -89 -279 -40 -130 -46 -136 -133
-136 -120 0 -381 62 -508 121 -198 92 -217 220 -84 586 63 175 88 221 127 239
43 19 102 12 307 -37z m3157 29 c78 -86 201 -399 219 -556 19 -169 -80 -254
-396 -341 -332 -91 -402 -108 -406 -97 -2 6 -15 70 -28 142 -29 150 -88 414
-116 518 -51 181 -28 199 351 281 118 26 237 53 264 60 72 19 89 18 112 -7z
m658 -88 c212 -55 295 -101 390 -218 103 -124 171 -307 182 -488 6 -101 6
-102 -21 -129 -26 -26 -31 -27 -90 -21 -69 7 -340 73 -459 112 -91 30 -153 74
-184 130 -13 24 -35 105 -54 200 -17 87 -47 204 -66 259 -19 55 -35 116 -36
135 -2 31 2 36 33 47 50 18 172 7 305 -27z m-4484 20 c10 -6 19 -18 19 -28 0
-27 -88 -398 -116 -492 -45 -147 -89 -212 -164 -244 -19 -8 -89 -24 -155 -35
-138 -25 -316 -71 -410 -106 -78 -30 -92 -31 -100 -6 -13 43 103 416 176 564
94 191 184 260 423 322 50 13 102 26 116 28 52 9 192 7 211 -3z m2850 -321
c57 -57 129 -297 129 -432 0 -59 -3 -71 -25 -92 -20 -21 -34 -25 -87 -25 -134
0 -469 106 -517 164 -20 24 8 65 107 156 131 121 317 250 360 250 6 0 21 -9
33 -21z m-1393 -13 c111 -56 336 -246 384 -324 16 -27 18 -35 7 -48 -48 -58
-383 -164 -517 -164 -54 0 -66 4 -89 26 -25 25 -25 29 -20 117 8 157 76 378
124 406 29 17 60 13 111 -13z m3169 -677 c136 -43 323 -114 381 -143 83 -42
122 -99 122 -176 0 -41 -36 -195 -85 -369 -50 -180 -56 -193 -93 -233 -51 -55
-99 -50 -412 49 -314 98 -353 113 -379 141 -31 35 -27 61 52 302 35 107 74
237 87 288 24 99 50 149 90 170 36 19 120 8 237 -29z m-4754 -56 c41 -137 197
-713 197 -727 0 -8 -62 -24 -177 -45 -177 -33 -379 -78 -483 -106 -113 -31
-155 -14 -199 77 -34 72 -104 321 -127 448 -33 190 6 236 281 333 198 70 337
104 426 106 l56 1 26 -87z m4171 61 c31 -30 28 -63 -27 -296 -31 -128 -61
-260 -67 -293 -6 -33 -13 -66 -16 -73 -2 -9 -62 42 -157 133 -173 167 -267
271 -299 332 -28 52 -20 64 77 109 180 83 447 131 489 88z m-3631 -15 c125
-25 250 -66 282 -91 23 -18 24 -21 10 -48 -30 -58 -126 -175 -275 -335 -84
-91 -156 -165 -159 -165 -7 0 -93 320 -116 428 -18 88 -20 203 -3 220 19 19
148 14 261 -9z m1377 -17 c33 -16 35 -21 38 -69 3 -59 -46 -274 -77 -333 -38
-74 -106 -44 -258 113 -132 137 -153 213 -72 261 75 44 302 62 369 28z m811
-6 c90 -19 207 -61 230 -82 39 -35 25 -61 -93 -179 -161 -161 -239 -204 -281
-157 -21 23 -41 80 -72 204 -29 113 -32 189 -9 212 20 21 133 21 225 2z m-472
-163 c24 -29 61 -146 88 -273 13 -63 18 -131 18 -265 0 -161 -2 -188 -23 -254
-26 -82 -73 -141 -112 -141 -45 0 -97 78 -126 191 -44 169 21 666 97 747 26
28 33 28 58 -5z m-706 -408 c115 -124 166 -194 215 -291 52 -104 63 -157 60
-300 l-3 -129 -113 114 c-150 149 -242 292 -303 467 -18 54 -70 317 -69 354 1
8 23 -10 53 -42 29 -31 100 -109 160 -173z m1922 168 c22 -15 63 -47 92 -72
64 -58 267 -270 262 -276 -9 -8 -280 -64 -364 -74 -49 -7 -104 -14 -122 -17
-47 -7 -56 16 -42 112 20 144 92 354 121 354 7 0 31 -12 53 -27z m-2424 7 c40
-22 71 -118 104 -318 10 -57 15 -106 11 -109 -13 -14 -539 54 -534 68 6 17
236 264 279 300 46 38 96 69 112 69 5 0 17 -5 28 -10z m4515 -5 c45 -19 145
-98 206 -163 192 -206 264 -543 182 -858 -46 -181 -89 -193 -243 -70 -103 81
-334 309 -371 364 -40 61 -47 114 -22 182 91 251 94 263 118 467 6 52 37 93
70 93 14 0 41 -7 60 -15z m-6634 -42 c59 -62 142 -252 187 -430 33 -127 27
-175 -32 -263 -33 -50 -515 -541 -521 -531 -2 3 -25 110 -52 236 -45 213 -48
241 -48 375 0 132 2 152 26 218 33 92 88 184 173 289 120 149 196 179 267 106z
m4168 -7 c9 -25 4 -76 -19 -181 -17 -73 -121 -276 -198 -384 -82 -115 -191
-228 -229 -237 -22 -6 -31 -2 -47 17 -27 33 -18 127 23 244 78 218 201 397
360 522 63 49 96 55 110 19z m-3003 -590 c26 -23 28 -29 26 -98 -1 -71 -49
-336 -80 -450 -19 -69 -35 -73 -105 -29 -63 40 -418 373 -418 392 0 11 182
116 250 144 82 33 202 63 257 64 31 1 49 -6 70 -23z m912 -35 c164 -54 230
-87 322 -161 75 -60 117 -113 125 -158 11 -55 -5 -85 -53 -102 -58 -20 -140
-2 -260 55 -108 53 -209 131 -317 245 -83 89 -113 137 -102 166 11 28 113 12
285 -45z m2695 46 c31 -23 10 -55 -133 -197 -147 -146 -225 -200 -377 -261
-98 -40 -210 -51 -237 -24 -79 79 120 292 389 416 149 69 313 99 358 66z m837
-6 c100 -26 172 -59 245 -114 76 -58 93 -91 69 -138 -35 -68 -348 -369 -383
-369 -34 0 -131 263 -172 460 -31 155 -17 178 106 179 33 1 94 -8 135 -18z
m-4087 -117 c124 -111 291 -311 310 -371 6 -19 0 -24 -51 -43 -60 -23 -459
-107 -467 -99 -3 3 15 77 40 164 24 88 59 213 76 278 17 64 33 117 36 117 2 0
27 -21 56 -46z m3599 -1 c26 -30 53 -102 111 -306 31 -107 56 -198 56 -200 0
-15 -400 74 -472 105 -96 41 -87 72 73 248 147 161 195 193 232 153z m-4735
-215 c26 -17 159 -143 297 -279 l249 -247 -125 -134 c-122 -129 -275 -304
-353 -400 -25 -31 -46 -48 -61 -48 -29 0 -124 62 -205 135 -84 76 -420 411
-420 420 0 13 251 299 363 414 107 109 179 171 199 171 5 0 30 -14 56 -32z
m5920 0 c26 -17 115 -99 198 -182 119 -120 157 -164 182 -215 55 -111 42 -207
-42 -326 -46 -64 -413 -428 -427 -423 -15 5 -559 601 -559 612 0 27 564 566
592 566 5 0 30 -14 56 -32z m-1578 -403 c197 -30 332 -91 316 -143 -5 -13 -30
-33 -69 -51 -225 -109 -696 -95 -854 25 -75 57 -25 110 146 154 169 43 256 46
461 15z m-2425 -9 c134 -32 210 -89 187 -140 -16 -36 -86 -72 -187 -98 -77
-19 -115 -22 -260 -22 -150 1 -182 4 -270 28 -122 32 -221 78 -231 108 -16 52
101 106 286 133 125 19 380 13 475 -9z m-1226 -370 c32 -38 89 -263 110 -431
22 -179 23 -221 6 -235 -45 -38 -397 83 -499 172 -35 30 -38 37 -31 67 18 81
228 342 332 410 52 34 65 37 82 17z m425 -12 c50 -13 362 -129 375 -140 8 -7
-303 -323 -335 -340 -42 -23 -59 -15 -91 42 -31 56 -93 277 -100 355 -9 101
20 117 151 83z m3734 -6 c19 -19 14 -87 -12 -174 -12 -43 -38 -139 -56 -211
-19 -79 -38 -133 -45 -133 -37 0 -316 269 -355 342 -31 60 -20 90 46 119 105
47 393 86 422 57z m349 -9 c56 -27 151 -123 228 -229 143 -200 141 -254 -14
-300 -94 -28 -363 -72 -419 -68 -43 3 -47 5 -50 30 -2 15 11 55 31 95 58 115
97 260 97 359 0 69 33 134 68 134 9 0 35 -10 59 -21z m-5815 -98 c41 -32 166
-148 278 -257 l203 -200 -127 -382 c-70 -210 -131 -382 -134 -382 -20 0 -365
353 -406 415 -110 165 -115 332 -19 630 33 103 72 193 95 223 18 21 34 14 110
-47z m7181 21 c25 -28 47 -87 73 -202 82 -360 9 -618 -250 -875 -99 -99 -150
-133 -181 -121 -20 7 -46 68 -110 261 -104 309 -116 398 -70 492 42 84 309
362 420 437 44 30 95 34 118 8z m-4332 -111 c-101 -114 -194 -195 -284 -250
-210 -126 -444 -209 -531 -187 -136 34 283 390 567 482 58 19 95 23 191 24
l118 0 -61 -69z m1605 48 c167 -51 353 -175 507 -338 114 -122 115 -156 2
-148 -108 8 -301 85 -472 188 -90 55 -183 136 -284 250 l-61 69 120 0 c93 0
135 -5 188 -21z m-1367 -324 c21 -27 41 -105 41 -159 0 -103 -105 -280 -251
-423 -147 -144 -206 -181 -223 -137 -12 32 -5 114 15 179 73 238 294 565 381
565 9 0 26 -11 37 -25z m983 -41 c39 -20 118 -102 162 -168 84 -126 176 -365
176 -455 0 -21 -7 -46 -15 -57 -14 -19 -15 -19 -52 2 -21 12 -70 51 -108 85
-185 167 -292 345 -302 500 -5 74 -5 76 23 98 30 23 63 22 116 -5z m-501 -55
c17 -18 40 -65 56 -112 27 -79 28 -89 27 -292 0 -186 -2 -221 -23 -305 -35
-141 -80 -220 -116 -206 -9 3 -29 34 -46 69 -118 254 -117 706 3 843 37 42 62
43 99 3z m2764 -163 c85 -85 198 -436 198 -616 1 -150 -77 -229 -276 -279 -94
-25 -287 -44 -378 -39 -70 4 -73 5 -108 45 -40 44 -73 129 -115 298 -61 239
-74 376 -38 408 18 16 259 102 482 173 131 41 201 44 235 10z m-5495 -12 c41
-14 158 -41 260 -61 233 -45 248 -49 287 -72 45 -28 57 -79 43 -178 -20 -143
-113 -510 -144 -571 -22 -42 -60 -72 -97 -78 -38 -6 -275 42 -409 82 -296 90
-327 193 -199 649 52 185 96 255 158 255 14 0 60 -12 101 -26z m1614 -50 c17
-45 -5 -184 -55 -340 -64 -199 -108 -195 -329 26 -97 96 -139 167 -122 204 17
37 77 58 272 91 223 39 226 39 234 19z m2292 -19 c48 -14 119 -28 158 -31 119
-11 154 -44 141 -131 -13 -88 -105 -195 -237 -275 -69 -42 -97 -47 -121 -20
-42 46 -113 327 -105 414 8 77 28 82 164 43z m599 -323 c37 -56 71 -150 111
-302 43 -164 54 -267 31 -276 -22 -8 -155 19 -405 82 -119 30 -225 57 -235 60
-15 5 -9 15 35 67 156 181 392 407 425 407 7 0 24 -17 38 -38z m-3577 -21 c43
-22 179 -142 242 -213 52 -60 110 -156 110 -183 0 -25 -25 -41 -114 -72 -129
-44 -471 -122 -483 -110 -12 13 85 441 118 518 21 49 50 79 77 79 7 0 30 -9
50 -19z m2165 -33 c58 -41 397 -348 397 -360 0 -8 -375 -132 -452 -149 -88
-19 -92 -15 -85 89 4 48 18 141 31 207 21 103 33 144 61 223 6 17 12 15 48
-10z m-766 -20 c42 -45 88 -235 100 -410 l6 -88 -28 0 c-41 0 -131 25 -333 91
-101 34 -182 65 -180 69 2 5 55 66 118 135 195 216 264 260 317 203z m-780
-651 c12 -30 43 -147 67 -259 25 -112 57 -241 71 -287 14 -47 25 -93 25 -103
0 -38 -31 -78 -79 -102 -152 -78 -563 -157 -655 -126 -46 15 -96 96 -165 270
-73 184 -104 301 -105 389 l-1 75 75 29 c141 54 511 160 635 182 87 16 101 8
132 -68z m428 23 c310 -61 419 -93 431 -125 23 -58 -196 -309 -325 -373 -65
-33 -118 -40 -163 -23 -26 10 -26 11 -129 385 -21 77 -41 147 -45 158 -8 25 0
24 231 -22z m-2127 0 c201 -45 400 -99 458 -126 64 -30 118 -84 148 -148 73
-155 162 -603 125 -627 -76 -48 -512 127 -670 269 -55 49 -103 129 -149 247
-57 149 -103 358 -87 399 8 21 16 21 175 -14z m3673 10 c10 -6 26 -25 35 -42
20 -39 15 -94 -21 -233 -25 -95 -125 -365 -135 -365 -13 1 -401 390 -424 427
-19 28 -26 51 -24 74 5 59 90 90 348 128 149 22 195 25 221 11z m583 -15 c155
-31 406 -100 463 -127 90 -42 101 -90 58 -263 -131 -538 -228 -609 -644 -473
-149 48 -251 97 -280 134 -29 37 -27 98 9 221 16 57 45 177 64 267 19 91 42
181 52 201 33 71 87 79 278 40z m1565 0 c23 -23 14 -78 -40 -249 -85 -269
-143 -370 -257 -448 -82 -56 -538 -234 -573 -223 -42 14 -37 124 16 349 41
176 85 297 130 358 58 79 122 109 391 179 224 59 300 67 333 34z m-2897 -344
c40 -33 172 -159 293 -280 l220 -221 -295 -295 c-162 -162 -299 -295 -305
-295 -6 0 -68 60 -140 133 -71 72 -201 205 -289 295 l-161 162 220 221 c202
202 353 339 375 339 5 0 42 -27 82 -59z m1153 -733 c198 -66 363 -123 368
-127 7 -7 -315 -291 -428 -376 -33 -25 -89 -60 -125 -78 -62 -31 -70 -32 -180
-31 -99 0 -139 6 -290 42 -278 67 -316 96 -248 193 20 28 136 155 258 281 215
222 224 229 254 222 17 -4 193 -60 391 -126z m-1949 -5 c143 -152 270 -294
343 -382 62 -76 62 -77 -51 -115 -287 -98 -483 -127 -614 -91 -111 30 -199 96
-396 299 -98 99 -178 183 -178 186 0 3 98 34 218 68 119 35 285 85 367 111 83
27 159 50 171 50 14 1 58 -39 140 -126z"/>
</g>
</svg>
